<svg id="Layer_1" data-name="Layer 1" xmlns="http://www.w3.org/2000/svg" viewBox="0 0 511.98 105.91"><title>logo</title><path d="M121.94,78.46q-4.81-23.31-35.52-23.31H55L55.4,158H87q27.81,0,34.45-21.2,1.92-6.27,1.76-30.84Q122.94,83.46,121.94,78.46ZM102.31,131.7q-1.38,4.31-3.37,5.7-3.27,2.26-12,2.26H75.19L75,73.39H86.42q9.09,0,12.6,2.4,2.52,1.68,3.44,6,.77,4.23.84,24.72Q103.45,127.91,102.31,131.7Z" transform="translate(-55.02 -53.46)"/><rect x="81.28" y="1.69" width="19.86" height="102.81"/><path d="M194.89,74.24q3.21-2.53,12.23-2.54T219.65,74a7.87,7.87,0,0,1,3,4.71l1.84,6,19.4-3.45L242,74.38q-5.88-20.91-34.91-20.92-29.88,0-34.61,23.24-1,4.72-1.22,28.87-.22,26.34,1.76,32.61,4,12.67,15,17.74,7.56,3.45,19.55,3.46,27.73,0,34.38-21.2,1.83-5.85,1.76-30.28V98.81H206.66v18.31h17.26c-.15,8.88-.48,14.2-1,16-.87,2.86-2,4.77-3.36,5.7q-3.28,2.26-11.92,2.26t-12.22-2.47q-2.07-1.47-3.28-5.49-1.08-3.74-1.07-26.48.07-22.25.91-26.48T194.89,74.24Z" transform="translate(-55.02 -53.46)"/><rect x="204.42" y="1.69" width="19.86" height="102.81"/><path d="M443.62,76.7q-4.8-23.23-35.44-23.24-29.87,0-34.6,23.24-1,4.72-1.23,28.87-.23,26.34,1.76,32.61,6.64,21.19,34.61,21.2,11.83,0,19.4-3.46,11-5.05,15-17.74,2-6.27,1.76-32.61Q444.61,81.42,443.62,76.7ZM424,133.11c-.86,2.86-2,4.77-3.36,5.7q-3.28,2.26-11.91,2.26t-12.15-2.47q-2.15-1.47-3.36-5.49-1.08-3.74-1.07-26.48.08-22.25.91-26.48c.62-2.91,1.58-4.88,2.91-5.91q3.21-2.53,12.22-2.54t12.53,2.4c1.68,1.12,2.82,3.14,3.44,6.05s.86,11.65.91,26.48Q425.06,129.31,424,133.11Z" transform="translate(-55.02 -53.46)"/><path d="M482.59,74.24q3.21-2.53,12.22-2.54T507.34,74a7.87,7.87,0,0,1,3.05,4.71l1.84,6,19.4-3.45-1.91-6.9q-5.88-20.91-34.91-20.92-29.87,0-34.61,23.24-1,4.72-1.22,28.87-.23,26.34,1.76,32.61,4,12.67,15.05,17.74,7.56,3.45,19.55,3.46,27.74,0,34.38-21.2,1.83-5.85,1.76-30.28V98.81H494.35v18.31h17.27c-.16,8.88-.49,14.2-1,16-.86,2.86-2,4.77-3.36,5.7q-3.28,2.26-11.92,2.26t-12.22-2.47c-1.37-1-2.47-2.81-3.28-5.49q-1.08-3.74-1.07-26.48.08-22.25.91-26.48C480.3,77.24,481.26,75.27,482.59,74.24Z" transform="translate(-55.02 -53.46)"/><rect x="492.12" y="1.69" width="19.86" height="102.81"/><path d="M345.73,55q0,22.36-1.07,26.16c-.87,2.86-2,4.77-3.36,5.71q-3.29,2.25-11.92,2.25c-5.81,0-9.85-.82-12.15-2.47q-2.13-1.47-3.36-5.49-1.06-3.7-1.07-26.16H293q-.17,25.11,1.76,31.23,5.18,16.5,23.27,20.13V158H337.9v-51.1A38,38,0,0,0,348.78,104q11-5.07,15-17.75,1.92-6.11,1.76-31.23Z" transform="translate(-55.02 -53.46)"/></svg>